<svg width="32" height="32" xmlns="http://www.w3.org/2000/svg">
 <defs>
  <linearGradient y2="0" x2="1" y1="1" x1="0" id="svg_4">
   <stop offset="0.417969" stop-color="#f9844c"/>
   <stop offset="1" stop-color="#067bb3"/>
  </linearGradient>
 </defs>
 <g>
  <title>background</title>
  <rect fill="none" id="canvas_background" height="402" width="582" y="-1" x="-1"/>
 </g>
 <g>
  <title>Layer 1</title>
  <path id="svg_1" fill="url(#svg_4)" d="m28,24c-0.973,0 -1.832,0.391 -2.523,0.965l-6.098,-4.352c0.387,-0.797 0.621,-1.672 0.621,-2.613c0,-1.293 -0.422,-2.488 -1.117,-3.465l7.133,-7.137c0.593,0.348 1.246,0.602 1.984,0.602c2.211,0 4,-1.789 4,-4s-1.789,-4 -4,-4s-4,1.789 -4,4c0,0.738 0.254,1.391 0.602,1.984l-7.133,7.137c-0.985,-0.703 -2.172,-1.121 -3.469,-1.121c-2.289,0 -4.258,1.301 -5.27,3.191l-4.816,-1.609c-0.195,-0.898 -0.957,-1.582 -1.914,-1.582c-1.105,0 -2,0.895 -2,2s0.895,2 2,2c0.504,0 0.953,-0.203 1.305,-0.512l4.789,1.598c-0.047,0.301 -0.094,0.602 -0.094,0.914c0,3.312 2.688,6 6,6c1.648,0 3.145,-0.668 4.23,-1.746l6.059,4.324c-0.172,0.445 -0.289,0.918 -0.289,1.422c0,2.207 1.789,4 4,4s4,-1.793 4,-4s-1.789,-4 -4,-4z"/>
 </g>
</svg>